<svg xmlns="http://www.w3.org/2000/svg" width="24" height="24" viewBox="0 0 24 24">
  <path fill="#000000" fill-rule="evenodd" d="M1427.99926,44 C1421.37311,44 1416,49.5085046 1416,56.3048195 C1416,61.7400586 1419.43794,66.3512503 1424.207,67.9789518 C1424.80737,68.0914936 1425.02615,67.7115707 1425.02615,67.385275 C1425.02615,67.0937239 1425.01584,66.3195271 1425.00994,65.2930554 C1421.67219,66.0362843 1420.96796,63.6434498 1420.96796,63.6434498 C1420.4221,62.2219489 1419.63536,61.8442919 1419.63536,61.8442919 C1418.54586,61.0806696 1419.71786,61.0957758 1419.71786,61.0957758 C1420.92228,61.1833922 1421.5558,62.3639479 1421.5558,62.3639479 C1422.62615,64.2439244 1424.3639,63.7008536 1425.04825,63.386643 C1425.15727,62.5912974 1425.46667,62.048982 1425.80994,61.7415693 C1423.14549,61.4311352 1420.34401,60.3752063 1420.34401,55.6605367 C1420.34401,54.3175885 1420.81179,53.219362 1421.57937,52.3590594 C1421.45562,52.0478701 1421.04383,50.7970702 1421.6965,49.102901 C1421.6965,49.102901 1422.70424,48.7720735 1424.99669,50.3642753 C1425.95359,50.0908517 1426.98048,49.9548951 1428.00074,49.9496079 C1429.01952,49.9548951 1430.04641,50.0908517 1431.00479,50.3642753 C1433.29576,48.7720735 1434.30129,49.102901 1434.30129,49.102901 C1434.95617,50.7970702 1434.54438,52.0478701 1434.42063,52.3590594 C1435.18969,53.219362 1435.65451,54.3175885 1435.65451,55.6605367 C1435.65451,60.3872913 1432.84862,61.4273587 1430.17532,61.7317502 C1430.60626,62.1116731 1430.99006,62.8624551 1430.99006,64.0105323 C1430.99006,65.6548508 1430.97532,66.9819374 1430.97532,67.385275 C1430.97532,67.7145919 1431.19116,68.0975361 1431.80037,67.9774412 C1436.56427,66.3467184 1440,61.738548 1440,56.3048195 C1440,49.5085046 1434.62689,44 1427.99926,44" transform="translate(-1416 -44)"/>
</svg>
